<svg xmlns="http://www.w3.org/2000/svg" version="1.1" width="1000" height="1000"><g clip-path="url(#SvgjsClipPath1163)"><rect width="1000" height="1000" fill="#059669"></rect><g transform="matrix(3.2,0,0,3.2,99.31337699890133,99.87350234985348)">
    <svg xmlns="http://www.w3.org/2000/svg" version="1.1"
         width="250" height="250"><svg width="250" height="250" viewBox="0 0 250 250" fill="none" xmlns="http://www.w3.org/2000/svg">
<g clip-path="url(#clip0_663_245)">
<path d="M185.573 208.017L227.24 135.848C229.064 132.682 230.022 129.093 230.021 125.439C230.019 121.786 229.056 118.197 227.229 115.033L184.915 42.4906C183.087 39.3235 180.457 36.6936 177.289 34.8651C174.122 33.0365 170.53 32.0739 166.873 32.0739L82.8918 31.7C79.2384 31.7 75.6493 32.6607 72.4844 34.4858C69.3195 36.3108 66.6902 38.9361 64.8603 42.0981L23.1936 114.267C21.3702 117.433 20.4113 121.022 20.4132 124.676C20.415 128.329 21.3776 131.918 23.2043 135.082L65.5187 207.624C67.3472 210.792 69.9771 213.422 73.1442 215.25C76.3112 217.079 79.9038 218.041 83.5609 218.041L167.542 218.415C171.195 218.415 174.784 217.454 177.949 215.629C181.114 213.804 183.743 211.179 185.573 208.017Z" stroke="white" stroke-width="20.8333" stroke-linecap="round" stroke-linejoin="round"></path>
<path d="M126.821 33.947L152.002 78.0986L202.829 77.8301" stroke="white" stroke-width="20.8333" stroke-linecap="round" stroke-linejoin="round"></path>
<path d="M44.8043 169.811L71.1071 124.253L44.0166 78.1823" stroke="white" stroke-width="20.8333" stroke-linecap="round" stroke-linejoin="round"></path>
<path d="M206.397 171.933L152.833 170.488L127.352 214.623" stroke="white" stroke-width="20.8333" stroke-linecap="round" stroke-linejoin="round"></path>
<path d="M72.7031 34.1199L125.155 125.145L230.211 125.057" stroke="white" stroke-width="20.8333" stroke-linecap="round" stroke-linejoin="round"></path>
<path d="M77.8299 209.906L125.214 125.057" stroke="white" stroke-width="20.8333" stroke-linecap="round" stroke-linejoin="round"></path>
</g>
<defs>
<clipPath id="clip0_663_245">
<rect width="250" height="250" fill="white"></rect>
</clipPath>
<clipPath id="SvgjsClipPath1163"><rect width="1000" height="1000" x="0" y="0" rx="500" ry="500"></rect></clipPath></defs>
</svg></svg></g></g></svg>