<?xml version="1.0" standalone="no"?>
<!DOCTYPE svg PUBLIC "-//W3C//DTD SVG 20010904//EN"
 "http://www.w3.org/TR/2001/REC-SVG-20010904/DTD/svg10.dtd">
<svg version="1.0" xmlns="http://www.w3.org/2000/svg"
 width="700.000000pt" height="700.000000pt" viewBox="0 0 700.000000 700.000000"
 preserveAspectRatio="xMidYMid meet">
<metadata>
Created by potrace 1.14, written by Peter Selinger 2001-2017
</metadata>
<g transform="translate(0.000000,700.000000) scale(0.100000,-0.100000)"
fill="#000000" stroke="none">
<path d="M2188 6990 c-84 -10 -146 -19 -174 -24 -12 -2 -37 -7 -55 -10 -73
-12 -276 -68 -367 -102 -548 -202 -993 -582 -1283 -1092 -32 -57 -59 -105 -59
-108 0 -2 -18 -41 -39 -87 -45 -96 -113 -291 -137 -393 -75 -323 -73 -270 -70
-1714 2 -707 6 -1299 9 -1317 3 -17 10 -64 17 -105 143 -882 768 -1624 1608
-1907 181 -61 377 -104 542 -119 114 -10 2566 -9 2656 1 39 4 80 9 90 11 11 2
37 7 59 11 22 4 51 9 65 11 151 26 375 99 540 176 47 22 99 47 115 55 50 23
115 62 215 129 390 260 697 626 879 1051 66 155 85 212 126 373 75 299 73 261
71 1705 -1 704 -5 1294 -8 1310 -6 26 -19 108 -22 140 -8 68 -47 227 -82 334
-42 130 -76 211 -145 351 -231 462 -618 848 -1079 1075 -218 108 -469 189
-695 224 -38 6 -86 14 -105 18 -48 10 -2589 12 -2672 3z"/>
</g>
</svg>
