<svg width="40" height="40" viewBox="0 0 40 40" fill="none" xmlns="http://www.w3.org/2000/svg">
<g clip-path="url(#clip0_33_490)">
<path d="M26.8367 29.8835L22.3417 34.2285C21.565 35.0069 20.49 35.3318 19.3033 35.3318C18.1167 35.3318 17.0417 35.0069 16.2633 34.2285L9.04333 26.9569C8.26499 26.1785 7.87333 25.0402 7.87333 23.8519C7.87333 22.6635 8.26499 21.5902 9.04333 20.8119L16.2417 13.5119C17.02 12.7335 18.1167 12.4368 19.3033 12.4368C20.49 12.4368 21.565 12.7619 22.3417 13.5402L26.8367 17.8835C27.6933 18.7418 29.1117 18.7119 30.0033 17.8202C30.895 16.9269 30.925 15.5085 30.0683 14.6519L25.72 10.2585C24.5973 9.14861 23.1853 8.37649 21.645 8.03018L25.7567 3.85852C26.6167 3.00185 26.5867 1.58185 25.695 0.690184C24.8033 -0.201483 23.3833 -0.229816 22.525 0.62685L5.69166 17.4619C4.05666 19.0985 3.20166 21.3569 3.20166 23.8535C3.20166 26.3502 4.05666 28.6785 5.69166 30.3119L12.9367 37.5802C14.5717 39.2119 16.8317 40.0002 19.3267 40.0002C21.8217 40.0002 24.0817 39.1469 25.7183 37.5102L30.0667 33.1152C30.9233 32.2585 30.8933 30.8402 30.0017 29.9485C29.11 29.0569 27.6917 29.0269 26.8367 29.8835ZM34.685 21.6835H17.7767C16.6067 21.6835 15.66 22.6902 15.66 23.9269C15.66 25.1635 16.6067 26.1702 17.7767 26.1702H34.685C35.8533 26.1702 36.8017 25.1635 36.8017 23.9269C36.8017 22.6902 35.8533 21.6835 34.685 21.6835Z" fill="#586E75"/>
</g>
<defs>
<clipPath id="clip0_33_490">
<rect width="40" height="40" fill="white"/>
</clipPath>
</defs>
</svg>
